<?xml version="1.0" standalone="no"?>
<!DOCTYPE svg PUBLIC "-//W3C//DTD SVG 20010904//EN"
 "http://www.w3.org/TR/2001/REC-SVG-20010904/DTD/svg10.dtd">
<svg version="1.0" xmlns="http://www.w3.org/2000/svg"
 width="181.000000pt" height="181.000000pt" viewBox="0 0 181.000000 181.000000"
 preserveAspectRatio="xMidYMid meet">

<g transform="translate(0.000000,181.000000) scale(0.100000,-0.100000)"
fill="#000000" stroke="none">
<path d="M800 1799 c-200 -21 -389 -116 -540 -270 -184 -188 -276 -451 -249
-717 32 -319 229 -592 525 -728 233 -108 524 -104 759 10 319 156 508 457 508
811 0 155 -26 264 -93 400 -111 222 -293 379 -528 455 -79 26 -241 52 -292 48
-8 0 -49 -4 -90 -9z m544 -625 c3 -9 6 -100 6 -204 0 -142 -3 -190 -13 -198
-10 -9 -29 3 -78 48 l-66 59 -89 -90 c-142 -144 -171 -151 -267 -61 -34 31
-68 63 -76 70 -12 12 -25 3 -85 -56 -39 -38 -82 -75 -95 -82 -33 -17 -83 -5
-113 28 -65 69 -49 107 106 260 l123 122 52 0 c52 0 55 -2 122 -67 l69 -67 50
49 50 49 -66 67 c-37 38 -63 72 -60 78 5 7 75 11 216 11 180 0 209 -2 214 -16z"/>
</g>
</svg>
