<svg width="30" height="18" viewBox="0 0 30 18" fill="none" xmlns="http://www.w3.org/2000/svg">
<path d="M28.9355 0.500488H16.3613C15.9081 0.500488 15.6816 1.0634 16.0214 1.40115L19.9863 5.34155L16.5878 8.71903L12.9628 5.11638C11.7167 3.87797 9.33783 3.87797 8.09174 5.11638L1.52142 11.6462C0.162048 12.9972 0.162048 15.1363 1.52142 16.4872C2.20111 17.1627 3.10736 17.5005 3.90033 17.5005C4.6933 17.5005 5.71283 17.1627 6.27924 16.4872L10.4706 12.3217L14.0956 15.9243C15.455 17.2753 17.6074 17.2753 18.9667 15.9243L24.8574 10.07L28.5956 13.7853C28.9355 14.123 29.5019 13.8978 29.5019 13.4475V1.0634C29.5019 0.725654 29.2753 0.500488 28.9355 0.500488Z" fill="white"/>
</svg>
